<?xml version="1.0" encoding="UTF-8"?>
<svg xmlns="http://www.w3.org/2000/svg" version="1.1" viewBox="0 0 425.2 402.52">
  <!-- Generator: Adobe Illustrator 29.4.0, SVG Export Plug-In . SVG Version: 2.1.0 Build 152)  -->
  <defs>
    <style>
      .st0 {
        stroke-dasharray: 2.2 1.65;
      }

      .st0, .st1, .st2, .st3, .st4 {
        fill: none;
        stroke: #1d1d1b;
        stroke-miterlimit: 10;
      }

      .st1 {
        stroke-dasharray: 2.2 1.65;
      }

      .st5, .st6, .st7, .st8, .st9 {
        font-size: 9px;
      }

      .st5, .st6, .st10 {
        fill: #fff;
      }

      .st5, .st8 {
        letter-spacing: .01em;
      }

      .st6, .st11, .st12, .st9 {
        font-family: Montserrat-Light, Montserrat;
        font-weight: 300;
      }

      .st13, .st14 {
        fill: #867caf;
      }

      .st15 {
        letter-spacing: .01em;
      }

      .st15, .st16 {
        font-size: 6px;
      }

      .st16 {
        letter-spacing: .01em;
      }

      .st2 {
        stroke-width: .5px;
      }

      .st17 {
        fill: #e4b2ae;
      }

      .st3 {
        stroke-dasharray: 4.04 3.03;
      }

      .st18, .st12, .st9 {
        fill: #1d1d1b;
      }

      .st19 {
        fill: #c41d1e;
      }

      .st20 {
        font-family: Montserrat-SemiBold, Montserrat;
        font-weight: 600;
      }

      .st21 {
        fill: #2b5187;
      }

      .st14 {
        opacity: .6;
      }
    </style>
  </defs>
  <g id="Ebene_2">
    <rect class="st10" width="425.2" height="402.52"/>
  </g>
  <g id="Ebene_1">
    <g>
      <rect class="st17" x="29.51" y="48.17" width="137.23" height="18.71"/>
      <text class="st6" transform="translate(32.88 60.61)"><tspan x="0" y="0">Apartement Sales 2012 - 2017</tspan></text>
    </g>
    <g>
      <rect class="st14" x="187.13" y="48.17" width="81.43" height="18.71"/>
      <text class="st6" transform="translate(190.51 60.61)"><tspan x="0" y="0">Min-Max Scaling</tspan></text>
    </g>
    <g>
      <rect class="st14" x="358.5" y="61.27" width="60.06" height="18.71"/>
      <text class="st6" transform="translate(361.87 73.71)"><tspan x="0" y="0">Sub-Index 3</tspan></text>
    </g>
    <rect class="st14" x="332.3" y="120.14" width="60.06" height="18.71"/>
    <text class="st6" transform="translate(335.67 132.58)"><tspan x="0" y="0">Sub-Index 4</tspan></text>
    <g>
      <rect class="st14" x="187.13" y="74.62" width="81.43" height="18.71"/>
      <text class="st6" transform="translate(190.51 87.05)"><tspan x="0" y="0">Min-Max Scaling</tspan></text>
    </g>
    <g>
      <rect class="st14" x="217.65" y="107.04" width="81.43" height="18.71"/>
      <text class="st6" transform="translate(221.02 119.48)"><tspan x="0" y="0">Min-Max Scaling</tspan></text>
    </g>
    <g>
      <rect class="st14" x="217.65" y="133.49" width="81.43" height="18.71"/>
      <text class="st6" transform="translate(221.02 145.93)"><tspan x="0" y="0">Min-Max Scaling</tspan></text>
    </g>
    <rect class="st14" x="187.13" y="165.92" width="81.43" height="35.55"/>
    <text class="st6" transform="translate(192.27 182.48)"><tspan x="0" y="0">Min-Max Scaling</tspan><tspan x="0" y="10.8">Sub Index 5</tspan></text>
    <g>
      <rect class="st13" x="217.65" y="244.68" width="81.43" height="28.86"/>
      <text class="st6" transform="translate(222.78 257.68)"><tspan x="0" y="0">Min-Max Scaling</tspan><tspan x="0" y="10.8">Sub Index 1</tspan></text>
    </g>
    <g>
      <rect class="st17" x="29.51" y="74.37" width="137.23" height="18.71"/>
      <text class="st6" transform="translate(32.88 86.81)"><tspan x="0" y="0">Apartement Sales 2015 - 2020</tspan></text>
    </g>
    <g>
      <rect class="st19" x="29.51" y="236.63" width="87.16" height="18.71"/>
      <text class="st6" transform="translate(32.88 249.07)"><tspan x="0" y="0">Rental Price 2009</tspan></text>
    </g>
    <g>
      <rect class="st19" x="137.52" y="244.68" width="67.66" height="28.86"/>
      <text class="st6" transform="translate(140.89 257.11)"><tspan x="0" y="0">Percentage </tspan><tspan x="0" y="10.8">Development</tspan></text>
    </g>
    <rect class="st19" x="29.51" y="263.32" width="87.16" height="18.71"/>
    <text class="st6" transform="translate(32.88 275.76)"><tspan x="0" y="0">Rental Price 2020</tspan></text>
    <g>
      <rect class="st17" x="29.51" y="107.04" width="167.75" height="18.71"/>
      <text class="st6" transform="translate(32.88 119.48)"><tspan x="0" y="0">Apartement Conversions 2012 - 2017</tspan></text>
    </g>
    <g>
      <rect class="st17" x="29.51" y="133.24" width="167.75" height="18.71"/>
      <text class="st6" transform="translate(32.88 145.68)"><tspan x="0" y="0">Apartement Conversions 2015 - 2020</tspan></text>
    </g>
    <rect class="st17" x="29.51" y="165.92" width="113.49" height="35.55"/>
    <text class="st6" transform="translate(32.88 178.35)"><tspan x="0" y="0">Duration of Residence </tspan><tspan x="0" y="10.8">(at least 5 years) in 2020</tspan></text>
    <g>
      <line class="st4" x1="29.51" y1="44.62" x2="27.51" y2="44.62"/>
      <line class="st1" x1="25.86" y1="44.62" x2="22.84" y2="44.62"/>
      <polyline class="st4" points="22.01 44.62 20.01 44.62 20.01 46.62"/>
      <line class="st3" x1="20.01" y1="49.65" x2="20.01" y2="203.54"/>
      <polyline class="st4" points="20.01 205.05 20.01 207.05 22.01 207.05"/>
      <line class="st0" x1="23.66" y1="207.05" x2="26.68" y2="207.05"/>
      <line class="st4" x1="27.51" y1="207.05" x2="29.51" y2="207.05"/>
    </g>
    <text class="st9" transform="translate(15.32 154.07) rotate(-90)"><tspan x="0" y="0">Proportion Data</tspan></text>
    <g>
      <line class="st2" x1="166.74" y1="57.53" x2="184.31" y2="57.53"/>
      <polygon class="st18" points="187.13 57.53 183.15 59.15 184.1 57.53 183.15 55.9 187.13 57.53"/>
    </g>
    <g>
      <line class="st2" x1="116.9" y1="245.99" x2="134.92" y2="257.58"/>
      <polygon class="st18" points="137.29 259.11 133.06 258.32 134.74 257.46 134.82 255.59 137.29 259.11"/>
    </g>
    <g>
      <line class="st2" x1="116.67" y1="272.68" x2="134.93" y2="260.66"/>
      <polygon class="st18" points="137.29 259.11 134.86 262.65 134.76 260.77 133.07 259.94 137.29 259.11"/>
    </g>
    <g>
      <line class="st2" x1="268.56" y1="57.53" x2="355.7" y2="70.22"/>
      <polygon class="st18" points="358.5 70.63 354.32 71.66 355.49 70.19 354.79 68.44 358.5 70.63"/>
    </g>
    <g>
      <line class="st2" x1="299.46" y1="116.4" x2="329.67" y2="128.45"/>
      <polygon class="st18" points="332.3 129.5 328 129.53 329.48 128.37 329.2 126.51 332.3 129.5"/>
    </g>
    <g>
      <line class="st2" x1="166.74" y1="83.97" x2="184.31" y2="83.97"/>
      <polygon class="st18" points="187.13 83.97 183.15 85.6 184.1 83.97 183.15 82.35 187.13 83.97"/>
    </g>
    <g>
      <line class="st2" x1="268.56" y1="83.97" x2="355.7" y2="71.04"/>
      <polygon class="st18" points="358.5 70.63 354.8 72.82 355.49 71.07 354.32 69.6 358.5 70.63"/>
    </g>
    <g>
      <line class="st2" x1="299.46" y1="142.6" x2="329.67" y2="130.55"/>
      <polygon class="st18" points="332.3 129.5 329.2 132.48 329.48 130.62 328 129.46 332.3 129.5"/>
    </g>
    <g>
      <line class="st2" x1="197.25" y1="116.4" x2="214.83" y2="116.4"/>
      <polygon class="st18" points="217.65 116.4 213.67 118.03 214.62 116.4 213.67 114.77 217.65 116.4"/>
    </g>
    <g>
      <line class="st2" x1="205.19" y1="259.11" x2="214.83" y2="259.11"/>
      <polygon class="st18" points="217.66 259.11 213.68 260.73 214.62 259.11 213.68 257.48 217.66 259.11"/>
    </g>
    <g>
      <line class="st2" x1="205.19" y1="321.63" x2="214.83" y2="321.63"/>
      <polygon class="st18" points="217.66 321.63 213.68 323.26 214.62 321.63 213.68 320.01 217.66 321.63"/>
    </g>
    <g>
      <line class="st2" x1="197.25" y1="142.85" x2="214.83" y2="142.85"/>
      <polygon class="st18" points="217.65 142.85 213.67 144.47 214.62 142.85 213.67 141.22 217.65 142.85"/>
    </g>
    <g>
      <line class="st2" x1="143" y1="183.69" x2="184.31" y2="183.69"/>
      <polygon class="st18" points="187.13 183.69 183.15 185.32 184.1 183.69 183.15 182.06 187.13 183.69"/>
    </g>
    <text class="st12" transform="translate(300.65 59.15) rotate(9.24)"><tspan class="st15" x="0" y="0">*</tspan><tspan class="st7" x="2.32" y="0">0,5</tspan></text>
    <text class="st12" transform="translate(308.39 117.3) rotate(21.54)"><tspan class="st15" x="0" y="0">*</tspan><tspan class="st7" x="2.32" y="0">0,5</tspan></text>
    <text class="st12" transform="translate(310.41 147.79) rotate(-21.54)"><tspan class="st15" x="0" y="0">*</tspan><tspan class="st7" x="2.32" y="0">0,5</tspan></text>
    <text class="st12" transform="translate(280.47 355.42)"><tspan class="st8" x="0" y="0">0,35</tspan><tspan class="st16" x="18.16" y="0" xml:space="preserve"> * </tspan><tspan class="st8" x="23.69" y="0">Index 2</tspan></text>
    <text class="st12" transform="translate(300.6 87.7) rotate(-9.13)"><tspan class="st15" x="0" y="0">*</tspan><tspan class="st7" x="2.32" y="0">0,5</tspan></text>
    <g>
      <rect class="st13" x="217.65" y="307.2" width="81.43" height="28.86"/>
      <text class="st6" transform="translate(222.78 320.21)"><tspan x="0" y="0">Min-Max Scaling</tspan><tspan x="0" y="10.8">Sub Index 2</tspan></text>
    </g>
    <rect class="st19" x="29.51" y="299.37" width="87.16" height="18.71"/>
    <text class="st6" transform="translate(32.88 311.81)"><tspan x="0" y="0">SGB II Quota 2009</tspan></text>
    <g>
      <rect class="st19" x="137.52" y="307.41" width="67.66" height="28.86"/>
      <text class="st6" transform="translate(140.89 319.85)"><tspan x="0" y="0">Percentage </tspan><tspan x="0" y="10.8">Development</tspan></text>
    </g>
    <rect class="st19" x="29.51" y="326.06" width="87.16" height="18.71"/>
    <text class="st6" transform="translate(32.88 338.5)"><tspan x="0" y="0">SGB II Quota 2020</tspan></text>
    <g>
      <line class="st2" x1="116.9" y1="308.73" x2="134.92" y2="320.32"/>
      <polygon class="st18" points="137.29 321.85 133.06 321.06 134.74 320.2 134.82 318.32 137.29 321.85"/>
    </g>
    <g>
      <line class="st2" x1="116.67" y1="335.42" x2="134.93" y2="323.4"/>
      <polygon class="st18" points="137.29 321.85 134.86 325.39 134.76 323.51 133.07 322.68 137.29 321.85"/>
    </g>
    <rect class="st21" x="325.43" y="210.48" width="93.13" height="124.93"/>
    <g>
      <polyline class="st2" points="258.8 335.42 258.8 344.77 371.99 344.77 371.99 338.03"/>
      <polygon class="st18" points="371.99 335.21 373.62 339.19 371.99 338.24 370.37 339.19 371.99 335.21"/>
    </g>
    <g>
      <polyline class="st2" points="258.8 244.68 258.8 235.11 322.61 235.11"/>
      <polygon class="st18" points="325.43 235.11 321.45 236.73 322.4 235.11 321.45 233.48 325.43 235.11"/>
    </g>
    <text class="st12" transform="translate(263.77 232.61)"><tspan class="st8" x="0" y="0">0,35</tspan><tspan class="st16" x="18.16" y="0" xml:space="preserve"> * </tspan><tspan class="st8" x="23.69" y="0">Index 1</tspan></text>
    <text class="st12" transform="translate(279.23 180.43)"><tspan class="st8" x="0" y="0">0,1</tspan><tspan class="st16" x="11.2" y="0" xml:space="preserve"> * </tspan><tspan class="st8" x="16.73" y="0">Index 5</tspan></text>
    <text class="st12" transform="translate(409.19 144.48) rotate(90)"><tspan class="st8" x="0" y="0">0,1</tspan><tspan class="st16" x="11.2" y="0" xml:space="preserve"> * </tspan><tspan class="st8" x="16.73" y="0">Index 3</tspan></text>
    <text class="st12" transform="translate(368.14 145.23) rotate(90)"><tspan class="st8" x="0" y="0">0,1</tspan><tspan class="st16" x="11.2" y="0" xml:space="preserve"> * </tspan><tspan class="st8" x="16.73" y="0">Index 4</tspan></text>
    <g>
      <line class="st2" x1="401.86" y1="79.98" x2="401.86" y2="207.66"/>
      <polygon class="st18" points="401.86 210.48 400.24 206.5 401.86 207.45 403.49 206.5 401.86 210.48"/>
    </g>
    <g>
      <line class="st2" x1="362.33" y1="138.86" x2="362.33" y2="207.66"/>
      <polygon class="st18" points="362.33 210.48 360.7 206.5 362.33 207.45 363.95 206.5 362.33 210.48"/>
    </g>
    <g>
      <polyline class="st2" points="268.56 184.26 336.13 184.26 336.13 207.66"/>
      <polygon class="st18" points="336.13 210.48 334.5 206.5 336.13 207.45 337.75 206.5 336.13 210.48"/>
    </g>
    <text class="st5" transform="translate(350.21 244.97)"><tspan class="st11"><tspan x="0" y="0">Weighted </tspan></tspan><tspan class="st11"><tspan x="-12.75" y="11">Combination of </tspan></tspan><tspan class="st11"><tspan x="2.03" y="22">Variables</tspan></tspan><tspan class="st20"><tspan x="-10.15" y="44">Gentrification </tspan></tspan><tspan class="st20"><tspan x="9.58" y="55" xml:space="preserve">Index  </tspan></tspan></text>
  </g>
</svg>